<?xml version="1.0" encoding="iso-8859-1"?>
<!-- Uploaded to: SVG Repo, www.svgrepo.com, Generator: SVG Repo Mixer Tools -->
<!DOCTYPE svg PUBLIC "-//W3C//DTD SVG 1.1//EN" "http://www.w3.org/Graphics/SVG/1.1/DTD/svg11.dtd">
<svg fill="#000000" height="800px" width="800px" version="1.1" id="Capa_1" xmlns="http://www.w3.org/2000/svg" xmlns:xlink="http://www.w3.org/1999/xlink" 
	 viewBox="0 0 456 456" xml:space="preserve">
	<path d="M405.127,152.644c-30.236-14.395-72.349-24.845-118.9-29.539c-5.596-16.531-29.167-28.601-58.23-28.601
		c-29.064,0-52.635,12.07-58.23,28.602c-1.324,0.133-2.643,0.273-3.959,0.415l-6.242-4.01c-13.159-8.464-29.274-10.622-44.216-5.924
		l-20.922,6.59c-5.243,1.653-9.246,5.593-10.98,10.808c-1.014,3.049-1.141,6.211-0.437,9.204
		c-11.749,3.716-22.542,7.886-32.138,12.454C17.592,168.489,0,188.059,0,209.237c0,40.88,18.527,80.689,52.168,112.095
		c0.358,0.334,0.763,0.614,1.202,0.83c52.23,25.733,112.616,39.335,174.63,39.335c62.027,0,122.417-13.605,174.641-39.345
		c0.438-0.216,0.844-0.496,1.201-0.83C437.477,289.922,456,250.116,456,209.237C456,188.059,438.408,168.489,405.127,152.644z
		 M370.512,268.604C330.822,281.265,280.21,288.237,228,288.237c-103,0-193.856-27.483-213.98-64.308
		c0.338-0.301,0.723-0.55,1.155-0.701c1.428-0.498,2.554-1.615,3.063-3.039c0.51-1.424,0.347-3.002-0.442-4.292
		c-0.338-0.551-0.516-1.18-0.516-1.821c0-1.93,1.57-3.5,3.5-3.5c0.281,0,0.569,0.041,0.882,0.126
		c1.675,0.455,3.471,0.007,4.735-1.185c1.266-1.191,1.821-2.953,1.47-4.655c-0.059-0.281-0.087-0.538-0.087-0.786
		c0-1.93,1.57-3.5,3.5-3.5c0.493,0,0.963,0.102,1.436,0.311c1.757,0.779,3.808,0.481,5.272-0.769
		c1.463-1.249,2.079-3.227,1.585-5.086c-0.074-0.281-0.112-0.569-0.112-0.856c0-1.93,1.57-3.5,3.5-3.5
		c0.51,0,1.005,0.111,1.471,0.329c1.438,0.673,3.107,0.623,4.502-0.133c1.395-0.756,2.348-2.129,2.568-3.7
		c0.24-1.708,1.727-2.995,3.459-2.995c0.663,0,1.311,0.192,1.874,0.554c1.437,0.925,3.245,1.052,4.796,0.338
		c1.552-0.714,2.632-2.171,2.864-3.863c0.236-1.727,1.727-3.03,3.466-3.03c1.07,0,1.829,0.462,2.277,0.85
		c1.406,1.217,3.373,1.553,5.104,0.872c1.73-0.681,2.94-2.267,3.14-4.116c0.191-1.771,1.688-3.107,3.479-3.107
		c0.954,0,1.849,0.383,2.52,1.079c1.311,1.361,3.276,1.868,5.083,1.306c1.805-0.56,3.14-2.091,3.45-3.955
		c0.282-1.698,1.731-2.93,3.447-2.93c0.938,0,1.813,0.36,2.463,1.014c1.295,1.304,3.204,1.791,4.965,1.271
		c1.763-0.521,3.097-1.968,3.475-3.766c0.338-1.604,1.779-2.769,3.428-2.769c0.996,0,1.918,0.412,2.597,1.159
		c1.23,1.356,3.104,1.932,4.881,1.5c1.779-0.431,3.181-1.8,3.653-3.569c0.407-1.525,1.793-2.591,3.369-2.591
		c0.969,0,1.873,0.392,2.546,1.104c1.159,1.226,2.857,1.785,4.519,1.487c1.661-0.299,3.059-1.415,3.718-2.968
		c0.548-1.29,1.811-2.123,3.218-2.123c1.424,0,2.296,0.791,2.689,1.262c1.143,1.37,2.929,2.028,4.687,1.725
		c1.759-0.302,3.223-1.518,3.842-3.191c0.509-1.374,1.828-2.297,3.282-2.297c1.181,0,2.274,0.594,2.927,1.59
		c1.022,1.561,2.835,2.421,4.685,2.235c1.855-0.187,3.453-1.392,4.144-3.125c0.532-1.336,1.806-2.199,3.245-2.199
		c1.071,0,2.073,0.486,2.749,1.334c1.027,1.289,2.627,1.989,4.264,1.873c1.644-0.116,3.124-1.034,3.958-2.455
		c0.354-0.601,0.86-1.065,1.45-1.365c4.341,3.347,9.635,6.204,15.674,8.418c-16.216,4.293-28.388,12.136-28.388,23.189
		c0,17.543,30.656,27.01,59.5,27.01s59.5-9.466,59.5-27.01c0-11.052-12.171-18.895-28.388-23.189
		c6.003-2.201,11.27-5.036,15.596-8.357c0.542,0.299,1.009,0.729,1.33,1.282c0.83,1.428,2.312,2.355,3.959,2.476
		c1.644,0.123,3.248-0.579,4.276-1.872c0.676-0.848,1.678-1.334,2.749-1.334c1.439,0,2.713,0.863,3.245,2.199
		c0.69,1.733,2.288,2.938,4.144,3.125c1.865,0.186,3.662-0.675,4.685-2.235c0.652-0.995,1.746-1.59,2.927-1.59
		c1.454,0,2.773,0.923,3.282,2.297c0.619,1.673,2.083,2.889,3.842,3.191c1.757,0.303,3.544-0.355,4.687-1.725
		c0.669-0.802,1.649-1.262,2.689-1.262c1.407,0,2.67,0.833,3.218,2.123c0.658,1.551,2.053,2.666,3.71,2.967
		c1.657,0.299,3.354-0.253,4.516-1.474c0.685-0.719,1.592-1.115,2.557-1.115c1.582,0,2.972,1.065,3.379,2.591
		c0.474,1.771,1.879,3.142,3.661,3.571c1.783,0.428,3.657-0.152,4.885-1.515c0.666-0.74,1.581-1.147,2.575-1.147
		c1.648,0,3.09,1.165,3.428,2.77c0.378,1.796,1.709,3.24,3.468,3.763c1.761,0.523,3.662,0.04,4.96-1.257
		c0.662-0.661,1.54-1.026,2.475-1.026c1.691,0,3.173,1.255,3.445,2.918c0.307,1.868,1.641,3.402,3.447,3.965
		c1.811,0.563,3.776,0.057,5.09-1.306c0.669-0.695,1.563-1.078,2.518-1.078c1.792,0,3.288,1.335,3.479,3.107
		c0.199,1.849,1.409,3.435,3.14,4.116c1.733,0.682,3.697,0.345,5.104-0.872c0.448-0.388,1.207-0.85,2.277-0.85
		c1.743,0,3.232,1.297,3.465,3.018c0.229,1.695,1.307,3.155,2.859,3.872c1.555,0.717,3.365,0.59,4.802-0.335
		c0.563-0.363,1.211-0.554,1.874-0.554c1.732,0,3.219,1.288,3.459,2.995c0.221,1.571,1.174,2.944,2.568,3.7
		c1.393,0.756,3.063,0.806,4.502,0.133c0.466-0.218,0.961-0.329,1.471-0.329c1.936,0,3.51,1.57,3.51,3.5
		c0,0.262-0.041,0.55-0.122,0.856c-0.494,1.859,0.122,3.837,1.586,5.086c1.462,1.249,3.513,1.548,5.271,0.769
		c0.467-0.207,0.949-0.311,1.435-0.311c1.93,0,3.5,1.57,3.5,3.5c0,0.251-0.028,0.508-0.086,0.786
		c-0.352,1.702,0.204,3.464,1.47,4.655s3.059,1.639,4.735,1.185c0.313-0.085,0.6-0.126,0.881-0.126c1.93,0,3.5,1.57,3.5,3.5
		c0,0.641-0.178,1.27-0.514,1.818c-0.79,1.29-0.954,2.867-0.445,4.292c0.508,1.424,1.633,2.542,3.061,3.041
		c0.492,0.172,0.929,0.457,1.292,0.815C432.495,241.114,407.303,256.867,370.512,268.604z M277.497,184.922
		c0,3.543-4.918,7.73-12.835,10.927c-9.713,3.923-22.734,6.083-36.665,6.083c-30.217,0-49.5-10.074-49.5-17.01
		c0-3.543,4.918-7.73,12.835-10.927c9.713-3.923,22.734-6.083,36.665-6.083C258.214,167.912,277.497,177.986,277.497,184.922z
		 M445.802,205.97c-1.967-2.607-4.846-4.488-8.168-5.14c-1.352-5.454-6.027-9.609-11.744-10.184
		c-1.558-5.736-6.814-9.968-13.041-9.968c-0.155,0-0.31,0.003-0.464,0.008c-2.392-3.92-6.719-6.508-11.536-6.508
		c-0.575,0-1.146,0.037-1.712,0.109c-2.434-3.697-6.626-6.109-11.288-6.109c-0.978,0-1.945,0.106-2.887,0.313
		c-2.445-3.536-6.528-5.813-11.113-5.813c-1.354,0-2.675,0.197-3.932,0.578c-2.483-3.126-6.312-5.078-10.568-5.078
		c-1.37,0-2.709,0.203-3.982,0.594c-2.508-2.981-6.264-4.844-10.348-4.844c-1.587,0-3.146,0.282-4.609,0.815
		c-2.495-2.682-6.046-4.315-9.891-4.315c-1.709,0-3.396,0.333-4.968,0.958c-2.428-2.185-5.621-3.458-9.032-3.458
		c-1.865,0-3.679,0.382-5.345,1.1c-2.448-2.26-5.701-3.6-9.155-3.6c-2.266,0-4.447,0.563-6.376,1.597
		c-2.364-1.966-5.386-3.097-8.624-3.097c-1.329,0-2.62,0.214-3.858,0.582c2.302-3.491,3.742-7.267,4.178-11.238
		C376.705,142.638,441.791,172.583,445.802,205.97z M227.997,104.503c26.832,0,49.5,12.001,49.5,26.207s-22.668,26.207-49.5,26.207
		s-49.5-12.001-49.5-26.207S201.165,104.503,227.997,104.503z M92.937,134.141c0.71-2.136,2.35-3.75,4.497-4.427l20.918-6.589
		c10.518-3.307,21.749-2.414,31.506,2.375c-20.435,2.865-39.734,6.857-57.214,11.808C92.497,136.266,92.589,135.188,92.937,134.141z
		 M168.655,133.272c0.439,3.997,1.894,7.797,4.223,11.308c-1.306-0.414-2.676-0.653-4.087-0.653c-3.238,0-6.26,1.132-8.624,3.097
		c-1.929-1.034-4.11-1.597-6.376-1.597c-3.454,0-6.707,1.341-9.155,3.6c-1.666-0.718-3.479-1.1-5.345-1.1
		c-3.41,0-6.603,1.272-9.029,3.456c-1.571-0.625-3.259-0.956-4.971-0.956c-3.843,0-7.392,1.634-9.886,4.318
		c-1.466-0.535-3.026-0.818-4.614-0.818c-4.084,0-7.839,1.862-10.347,4.842c-1.272-0.39-2.612-0.592-3.983-0.592
		c-4.25,0-8.077,1.953-10.563,5.08c-1.259-0.383-2.582-0.58-3.938-0.58c-4.585,0-8.668,2.277-11.113,5.813
		c-0.941-0.207-1.909-0.313-2.887-0.313c-4.654,0-8.845,2.412-11.282,6.11c-0.567-0.073-1.141-0.11-1.718-0.11
		c-4.817,0-9.145,2.588-11.536,6.508c-0.154-0.005-0.309-0.008-0.464-0.008c-6.222,0-11.474,4.231-13.031,9.967
		c-5.722,0.571-10.402,4.728-11.755,10.185c-3.189,0.626-5.974,2.385-7.932,4.831C14.617,172.399,79.568,142.61,168.655,133.272z
		 M397.555,313.509C346.851,338.364,288.241,351.497,228,351.497c-60.228,0-118.834-13.129-169.545-37.978
		c-22.572-21.243-37.81-46.447-44.536-73.073c13.712,14.638,37.206,27.667,68.279,37.608
		c40.687,13.016,92.467,20.184,145.802,20.184c53.214,0,104.904-7.141,145.551-20.106c31.19-9.95,54.779-23.011,68.531-37.688
		C435.357,267.068,420.122,292.27,397.555,313.509z"/>
	<path d="M371.971,284.606c-1.656-2.21-4.79-2.661-6.999-1.005c-2.211,1.655-2.66,4.789-1.005,6.999l1.516,2.024l-61.142,15.094
		l-13.6-8.74c-2.324-1.493-5.417-0.82-6.909,1.503c-1.493,2.323-0.82,5.417,1.503,6.909l19.067,12.254
		c8.592,5.522,18.437,8.359,28.391,8.359c5.301,0,10.634-0.805,15.821-2.438l20.927-6.587c5.23-1.646,9.355-5.745,11.036-10.964
		s0.722-10.955-2.565-15.343L371.971,284.606z M371.059,304.95c-0.698,2.169-2.346,3.806-4.52,4.49l-20.927,6.587
		c-9.508,2.993-19.603,2.537-28.668-1.12l54.322-13.41C371.486,302.625,371.428,303.804,371.059,304.95z"/>
	<path d="M189.481,182.586c0,5.264,4.495,9.302,13.359,12.002c6.79,2.068,15.724,3.207,25.156,3.207
		c9.432,0,18.365-1.139,25.155-3.207c8.864-2.7,13.359-6.739,13.359-12.002c0-2.761-2.238-5-5-5c-2.574,0-4.693,1.945-4.97,4.446
		c-1.656,1.838-11.466,5.764-28.545,5.764s-26.89-3.926-28.546-5.764c-0.276-2.5-2.396-4.446-4.97-4.446
		C191.72,177.586,189.481,179.824,189.481,182.586z"/>
	<path d="M310.405,182.405c0.939-0.939,2.184-1.456,3.505-1.456c1.781,0,3.382,0.929,4.283,2.485
		c0.755,1.304,2.058,2.198,3.545,2.433c1.491,0.237,3.004-0.212,4.123-1.219c0.927-0.832,2.105-1.29,3.319-1.29
		c1.867,0,3.557,1.046,4.409,2.729c0.684,1.349,1.94,2.317,3.42,2.632s3.021-0.056,4.194-1.01c0.881-0.716,1.987-1.11,3.116-1.11
		c1.974,0,3.757,1.171,4.544,2.982c0.604,1.391,1.808,2.433,3.271,2.832c1.465,0.399,3.029,0.112,4.256-0.78
		c0.604-0.44,1.603-0.964,2.92-0.964c2.063,0,3.93,1.312,4.646,3.264c0.526,1.434,1.68,2.549,3.132,3.026
		c1.45,0.477,3.041,0.265,4.315-0.577c0.797-0.525,1.729-0.803,2.696-0.803c2.171,0,4.119,1.456,4.736,3.541
		c0.437,1.475,1.528,2.667,2.96,3.231c0.592,0.233,1.214,0.348,1.834,0.348c0.88,0,1.757-0.232,2.535-0.69s1.617-0.69,2.494-0.69
		c2.762,0,5-2.239,5-5s-2.238-5-5-5c-0.882,0-1.761,0.08-2.626,0.236c-2.774-3.667-7.177-5.976-11.934-5.976
		c-1.152,0-2.29,0.131-3.395,0.388c-2.794-3.287-6.942-5.298-11.396-5.298c-1.417,0-2.809,0.199-4.146,0.587
		c-2.773-2.921-6.668-4.657-10.845-4.657c-1.672,0-3.326,0.284-4.892,0.828c-2.723-2.579-6.355-4.068-10.248-4.068
		c-1.953,0-3.868,0.384-5.649,1.115c-2.66-2.238-6.061-3.525-9.621-3.525c-3.991,0-7.747,1.557-10.575,4.384
		c-1.953,1.952-1.953,5.118-0.001,7.071C305.285,184.357,308.45,184.357,310.405,182.405z"/>
	<path d="M67.333,201.319c0.877,0,1.717,0.232,2.497,0.691c0.777,0.457,1.653,0.689,2.533,0.689c0.621,0,1.243-0.115,1.835-0.349
		c1.432-0.565,2.522-1.757,2.959-3.232c0.617-2.084,2.564-3.54,4.735-3.54c0.968,0,1.9,0.277,2.694,0.802
		c1.274,0.842,2.864,1.055,4.316,0.578c1.451-0.477,2.605-1.591,3.133-3.025c0.718-1.953,2.585-3.265,4.646-3.265
		c1.317,0,2.315,0.524,2.92,0.964c1.226,0.892,2.793,1.178,4.255,0.78c1.463-0.399,2.666-1.44,3.271-2.831
		c0.788-1.812,2.572-2.983,4.545-2.983c1.129,0,2.235,0.394,3.116,1.11c1.173,0.954,2.718,1.325,4.194,1.01
		c1.479-0.315,2.736-1.282,3.42-2.632c0.853-1.683,2.542-2.729,4.409-2.729c1.215,0,2.394,0.458,3.318,1.289
		c1.12,1.007,2.641,1.456,4.123,1.219c1.488-0.235,2.791-1.129,3.546-2.433c0.901-1.556,2.502-2.485,4.283-2.485
		c1.321,0,2.566,0.517,3.504,1.455c1.953,1.953,5.118,1.953,7.071,0c1.953-1.953,1.953-5.118,0.001-7.071
		c-2.827-2.827-6.583-4.385-10.576-4.385c-3.56,0-6.961,1.287-9.621,3.524c-1.78-0.73-3.696-1.115-5.649-1.115
		c-3.893,0-7.525,1.489-10.248,4.068c-1.565-0.543-3.22-0.828-4.892-0.828c-4.176,0-8.07,1.736-10.844,4.657
		c-1.337-0.388-2.729-0.587-4.146-0.587c-4.452,0-8.601,2.011-11.395,5.298c-1.104-0.257-2.243-0.388-3.396-0.388
		c-4.758,0-9.159,2.308-11.934,5.976c-0.865-0.156-1.744-0.236-2.626-0.236c-2.762,0-5,2.239-5,5S64.571,201.319,67.333,201.319z"/>
	<path d="M304.137,260.685c-1.364,0.383-2.65,0.95-3.833,1.684c-3.459-2.063-7.679-2.684-11.698-1.557
		c-1.609,0.451-3.126,1.172-4.487,2.118c-3.316-1.747-7.217-2.202-10.966-1.15c-2.659,0.745-4.21,3.505-3.465,6.164
		c0.745,2.659,3.508,4.209,6.164,3.465c1.8-0.505,3.708,0.046,4.981,1.436c0.95,1.037,2.289,1.622,3.687,1.622
		c0.105,0,0.211-0.003,0.316-0.01c1.51-0.096,2.895-0.87,3.768-2.105c0.655-0.927,1.614-1.605,2.701-1.91
		c1.9-0.532,3.933,0.113,5.182,1.646c0.959,1.177,2.391,1.891,3.914,1.843c1.517-0.011,2.946-0.71,3.887-1.9
		c0.463-0.586,1.281-1.36,2.551-1.716c2.658-0.746,4.209-3.506,3.464-6.164C309.556,261.49,306.797,259.939,304.137,260.685z"/>
	<path d="M182.837,261.78c-3.749-1.052-7.649-0.597-10.966,1.151c-1.36-0.946-2.877-1.667-4.487-2.118
		c-4.021-1.127-8.239-0.508-11.698,1.557c-1.183-0.735-2.47-1.302-3.834-1.684c-2.657-0.745-5.418,0.806-6.164,3.465
		c-0.745,2.659,0.806,5.419,3.465,6.164c1.269,0.355,2.088,1.13,2.553,1.717c0.94,1.189,2.37,1.888,3.886,1.899
		c0.013,0,0.024,0,0.036,0c1.503,0,2.928-0.677,3.878-1.844c1.246-1.531,3.276-2.179,5.18-1.645c1.087,0.305,2.046,0.983,2.701,1.91
		c0.873,1.235,2.258,2.009,3.767,2.105c0.106,0.007,0.212,0.01,0.317,0.01c1.396,0,2.735-0.585,3.686-1.621
		c1.274-1.39,3.183-1.942,4.982-1.437c2.656,0.744,5.418-0.805,6.164-3.465C187.047,265.285,185.496,262.526,182.837,261.78z"/>
	<path d="M180.823,224.946c1.796-0.504,3.707,0.046,4.981,1.437c0.95,1.037,2.289,1.621,3.686,1.621c0.105,0,0.212-0.003,0.318-0.01
		c1.51-0.096,2.895-0.871,3.767-2.106c0.653-0.926,1.612-1.604,2.699-1.908c1.897-0.533,3.933,0.113,5.181,1.645
		c0.95,1.167,2.374,1.844,3.878,1.844c0.012,0,0.024,0,0.037,0c1.517-0.011,2.946-0.71,3.887-1.901
		c0.463-0.586,1.281-1.36,2.55-1.715c2.659-0.745,4.21-3.505,3.465-6.164c-0.746-2.66-3.508-4.209-6.164-3.465
		c-1.364,0.383-2.651,0.95-3.834,1.684c-3.458-2.063-7.675-2.685-11.698-1.556c-1.61,0.451-3.126,1.172-4.486,2.117
		c-3.32-1.748-7.222-2.201-10.967-1.15c-2.658,0.746-4.209,3.506-3.464,6.164C175.404,224.141,178.162,225.691,180.823,224.946z"/>
	<path d="M409.835,222.9c-1.364,0.383-2.651,0.95-3.834,1.684c-3.458-2.064-7.678-2.684-11.698-1.556
		c-1.61,0.451-3.127,1.172-4.486,2.117c-3.32-1.748-7.22-2.2-10.966-1.15c-2.659,0.746-4.21,3.505-3.465,6.164
		c0.746,2.659,3.507,4.209,6.164,3.465c1.799-0.505,3.708,0.046,4.982,1.437c0.95,1.037,2.289,1.621,3.686,1.621
		c0.105,0,0.212-0.003,0.318-0.01c1.51-0.096,2.895-0.871,3.767-2.106c0.653-0.926,1.612-1.604,2.699-1.908
		c1.897-0.533,3.933,0.113,5.181,1.645c0.95,1.167,2.374,1.844,3.878,1.844c0.012,0,0.024,0,0.037,0
		c1.517-0.011,2.946-0.71,3.887-1.901c0.463-0.586,1.281-1.36,2.55-1.715c2.659-0.745,4.21-3.505,3.465-6.164
		C415.253,223.705,412.49,222.155,409.835,222.9z"/>
	<path d="M64.183,223.582c2.655,0.745,5.418-0.806,6.164-3.465c0.745-2.659-0.806-5.419-3.465-6.164
		c-3.749-1.051-7.648-0.597-10.966,1.151c-1.36-0.946-2.877-1.667-4.487-2.118c-4.017-1.127-8.237-0.507-11.698,1.557
		c-1.183-0.735-2.469-1.302-3.834-1.684c-2.655-0.744-5.418,0.805-6.164,3.465c-0.745,2.659,0.806,5.419,3.465,6.164
		c1.269,0.355,2.087,1.129,2.55,1.716c0.94,1.19,2.37,1.889,3.887,1.9c0.013,0,0.024,0,0.037,0c1.503,0,2.927-0.676,3.877-1.843
		c1.247-1.532,3.281-2.18,5.182-1.646c1.087,0.305,2.046,0.983,2.701,1.91c0.873,1.235,2.258,2.009,3.767,2.105
		c0.106,0.007,0.212,0.01,0.317,0.01c1.396,0,2.735-0.585,3.686-1.621C60.475,223.629,62.383,223.077,64.183,223.582z"/>
	<path d="M166.918,235.453c3.077-5.397,3.862-11.661,2.208-17.657c-2.626-9.519-11.043-16.314-20.783-16.978
		c-0.52-0.036-7.836-0.061-7.836-0.061l-41.675-0.662c-2.633-0.071-4.89,1.982-5.07,4.684c-0.148,2.215,1.289,4.235,3.356,5.045
		l26.818,10.51h0c-12.999,3.354-26.139,6.136-39.382,8.335l-21.129,3.509c-1.926,0.32-3.583,1.666-4.12,3.543
		c-0.781,2.73,0.796,5.442,3.381,6.207l10.449,3.091c13.728,4.061,27.947,6.12,42.264,6.12c12.326,0,24.63-1.534,36.579-4.56
		C158.229,244.996,163.725,241.054,166.918,235.453z M87.517,238.314l29.23-5.797c4.328,1.906,9.4,4.989,12.161,7.938
		C115.091,241.797,101.088,241.094,87.517,238.314z M139.803,238.962c-1.524-3.492-4.572-6.851-9.13-10.04l10.72-2.767
		c2.1-0.542,3.61-2.375,3.742-4.539c0.131-2.164-1.148-4.167-3.167-4.958l-15.634-6.127l15.168,0.241c0,0,4.889-0.009,5.268-0.009
		c5.912,0,11.14,3.985,12.714,9.692c0.949,3.44,0.487,7.036-1.301,10.125s-4.677,5.28-8.133,6.17
		C146.665,237.622,143.244,238.351,139.803,238.962z"/>
	<path d="M389.056,249.886l-19.445-8.992c-12.185-5.635-24.116-11.803-35.759-18.486l0,0l28.709-3.024
		c2.03-0.214,3.822-1.571,4.401-3.528c0.832-2.811-0.844-5.606-3.536-6.301l-44.746-11.552c-2.512-0.897-5.132-1.352-7.792-1.352
		c-8.131,0-15.768,4.338-19.933,11.32c-3.185,5.342-4.09,11.59-2.555,17.61c1.591,6.243,5.839,11.502,11.441,14.684
		c22.399,12.725,47.835,19.449,73.603,19.449c0.946,0,13.732-0.235,13.732-0.235c2.695-0.051,4.935-2.247,4.909-5.086
		C392.066,252.443,390.827,250.705,389.056,249.886z M298.113,223.201c-0.905-3.453-0.396-7.042,1.431-10.107
		c2.37-3.974,6.717-6.442,11.344-6.442c1.562,0,3.101,0.277,4.575,0.822c0.159,0.059,0.321,0.11,0.485,0.152l18.191,4.697
		l-16.698,1.759c-2.156,0.227-3.921,1.818-4.369,3.939c-0.447,2.122,0.522,4.29,2.403,5.369l9.602,5.512
		c-5.242,1.865-9.073,4.295-11.469,7.259c-3.151-1.502-6.254-3.112-9.291-4.854C301.222,229.532,299.018,226.653,298.113,223.201z
		 M323.718,240.496c3.444-2.104,9.159-3.734,13.836-4.432l26.637,13.342C350.321,248.476,336.669,245.454,323.718,240.496z"/>
	<path d="M245.835,217.371c-2.971,0-5.892,0.732-8.47,2.121l-35.336,14.56c-1.831,0.755-3.152,2.478-3.223,4.458
		c-0.102,2.868,2.125,5.133,4.846,5.216l25.177,0.765l0,0c-8.619,7.421-17.618,14.389-26.959,20.877l-14.577,10.124
		c-1.847,1.283-2.61,3.641-1.865,5.763c0.707,2.013,2.606,3.344,4.716,3.344c0.113,0,0.229-0.004,0.343-0.012l9.202-0.629
		c23.085-1.578,44.524-10.354,62.003-25.382c8.468-7.28,9.245-21.49,1.732-31.677C259.023,220.933,252.448,217.371,245.835,217.371z
		 M228.362,258.089c3.559,0.351,8.72,1.4,12.01,3.38c-9.794,5.636-20.487,9.485-31.741,11.379L228.362,258.089z M255.172,250.994
		c-1.943,1.671-3.947,3.246-5.995,4.745c-3.035-2.998-7.206-4.844-11.143-5.976l7.072-6.089c1.563-1.346,2.139-3.513,1.451-5.458
		c-0.688-1.944-2.5-3.267-4.562-3.329l-14.661-0.446l14.1-5.81c0.188-0.078,3.016-1.26,4.401-1.26c3.451,0,7.018,2.043,9.541,5.464
		C259.775,238.801,259.683,247.116,255.172,250.994z"/>
</svg>